<svg width="54" height="45" viewBox="0 0 54 45" fill="none" xmlns="http://www.w3.org/2000/svg">
<path d="M16.4452 35.554L17.7394 33.2299C17.9677 32.82 17.8803 32.3064 17.5292 31.9951L15.2548 29.9783C14.8009 29.5758 14.0858 29.7394 13.852 30.2992C13.7145 30.6284 13.3927 30.8427 13.036 30.8427H9.28786C8.78814 30.8427 8.36513 30.4738 8.29715 29.9787L7.08509 21.1521C6.95988 20.2402 8.02892 19.6578 8.72723 20.2573L26.4837 35.5032C26.8609 35.8271 27.4186 35.8247 27.793 35.4976L31.7642 32.0286C32.1088 31.7276 32.2051 31.2312 31.9982 30.8231L30.5595 27.9865C30.258 27.392 29.4703 27.2533 28.9839 27.709L27.383 29.2089C27.0063 29.5617 26.423 29.57 26.0365 29.2279L2.31566 8.23279C1.61559 7.61317 0.523841 8.20748 0.664224 9.13177L4.62619 35.2176C4.70041 35.7063 5.12055 36.0674 5.61485 36.0674H15.5715C15.9343 36.0674 16.2686 35.8709 16.4452 35.554Z" fill="#F08100"/>
<path d="M21.4339 20.848L19.2624 19.0186C18.9247 18.7341 18.8135 18.2618 18.989 17.8566L25.7918 2.14075C26.141 1.33399 27.2864 1.33803 27.63 2.14723L39.5532 30.2335C39.71 30.6028 40.0724 30.8427 40.4737 30.8427H44.3093C44.8005 30.8427 45.219 30.4859 45.2967 30.0009L46.6957 21.2684C46.8437 20.3447 45.7555 19.7417 45.0507 20.3569L41.3788 23.562C40.8768 24.0002 40.0946 23.8341 39.8141 23.2296L38.5795 20.5693C38.3921 20.1655 38.4942 19.6865 38.83 19.3942L51.6508 8.23213C52.358 7.61638 53.4476 8.22515 53.2939 9.15021L48.9613 35.2313C48.8811 35.7137 48.4638 36.0674 47.9748 36.0674H37.8029C37.3995 36.0674 37.0356 35.8251 36.8801 35.4528L27.6638 13.3869C27.3183 12.5599 26.1431 12.5699 25.8118 13.4027L23.0074 20.4528C22.7552 21.0869 21.9559 21.2876 21.4339 20.848Z" fill="#F08100"/>
<path d="M47.0207 39.7753H6.62356C5.96545 39.7753 5.48677 40.4 5.658 41.0355L6.52696 44.2602C6.64459 44.6967 7.04044 45 7.49252 45H46.3255C46.7966 45 47.2038 44.6712 47.303 44.2107L47.9982 40.986C48.1325 40.3632 47.6578 39.7753 47.0207 39.7753Z" fill="#F08100"/>
</svg>
